{"asset":{"version":"2.0","generator":"babylon.js glTF exporter for 3dsmax 2021 v20210115.1"},"scene":0,"scenes":[{"nodes":[0,4,41]}],"nodes":[{"children":[1,2,3],"translation":[-20.6246548,1.1400001,55.4751053],"name":"Group05"},{"mesh":0,"translation":[0.9342461,-0.1,0.0],"rotation":[0.0,2.82129974E-07,1.0,0.0],"scale":[1.0,-1.0,1.0],"name":"Box04"},{"mesh":0,"translation":[-0.00164453138,-0.1,0.0],"rotation":[0.0,2.82129974E-07,1.0,0.0],"scale":[1.0,-1.0,1.0],"name":"Box03"},{"mesh":0,"translation":[-0.9342461,-0.1,0.0],"name":"Box02"},{"children":[5,12,21,26,31,36],"translation":[-20.6283875,0.530000031,57.3023148],"name":"Group27"},{"children":[6,7,8,9,10,11],"translation":[0.004734375,0.09,-0.55],"name":"Group01"},{"mesh":1,"translation":[21.3058586,-0.62,-57.888485],"name":"_0007_Mist"},{"mesh":2,"translation":[21.3058586,-0.62,-57.888485],"name":"_0006_Pink"},{"mesh":3,"translation":[21.3058586,-0.62,-57.888485],"name":"0015_Salmo"},{"mesh":4,"translation":[21.3058586,-0.62,-57.888485],"name":"0010_Snow"},{"mesh":5,"translation":[21.3058586,-0.62,-57.888485],"name":"Object03"},{"mesh":6,"translation":[21.3058586,-0.62,-57.888485],"name":"Mesh02"},{"children":[13,14,15,16,17,18,19,20],"translation":[0.004734375,0.09,0.55],"name":"Group02"},{"mesh":7,"translation":[21.3058586,-0.62,-58.9884834],"name":"Mesh05"},{"mesh":8,"translation":[21.3058586,-0.62,-58.9884834],"name":"Mesh03"},{"mesh":9,"translation":[21.3058586,-0.62,-58.9884834],"name":"0013_Light"},{"mesh":10,"translation":[21.3058586,-0.62,-58.9884834],"name":"0012_Bisqu"},{"mesh":11,"translation":[21.3058586,-0.62,-58.9884834],"name":"0009_Linen"},{"mesh":12,"translation":[21.3058586,-0.62,-58.9884834],"name":"0008_Laven"},{"mesh":13,"translation":[21.3058586,-0.62,-58.9884834],"name":"Object04"},{"mesh":14,"translation":[21.3058586,-0.62,-58.9884834],"name":"Mesh06"},{"children":[22,23,24,25],"translation":[1.32223439,0.09,0.0],"name":"Group03"},{"mesh":15,"translation":[19.9883575,-0.62,-58.4384842],"name":"0004_HotPi"},{"mesh":16,"translation":[0.0,0.420000017,0.0],"name":"Object02"},{"mesh":17,"translation":[19.9883575,-0.62,-58.4384842],"name":"Object06"},{"mesh":18,"translation":[19.9883575,-0.62,-58.4384842],"name":"0005_Light"},{"children":[27,28,29,30],"translation":[0.0,-0.420000017,0.0],"name":"Group06"},{"mesh":19,"translation":[-1.05473447,-0.09,0.0],"name":"Box07"},{"mesh":19,"translation":[-0.356199235,-0.09,0.0],"rotation":[0.0,0.0,1.0,0.0],"scale":[1.0,-1.0,1.0],"name":"Box06"},{"mesh":19,"translation":[0.346793,-0.09,0.0],"name":"Box05"},{"mesh":19,"translation":[1.05473447,-0.09,0.0],"name":"Box01"},{"children":[32,33,34,35],"translation":[0.0,-0.420000017,0.0],"name":"Group25"},{"mesh":19,"translation":[-0.356199235,-0.09,0.0],"rotation":[0.0,0.0,1.0,0.0],"scale":[1.0,-1.0,1.0],"name":"Box33"},{"mesh":19,"translation":[-1.05473447,-0.09,0.0],"name":"Box34"},{"mesh":19,"translation":[0.346793,-0.09,0.0],"name":"Box35"},{"mesh":19,"translation":[1.05473447,-0.09,0.0],"name":"Box36"},{"children":[37,38,39,40],"translation":[-1.31276572,0.09,0.0],"name":"Group04"},{"mesh":20,"translation":[22.6233578,-0.62,-58.4384842],"name":"0002_Mediu"},{"mesh":21,"translation":[0.0,0.420000017,0.0],"name":"Object01"},{"mesh":22,"translation":[22.6233578,-0.62,-58.4384842],"name":"Object05"},{"mesh":23,"translation":[22.6233578,-0.62,-58.4384842],"name":"0003_DeepP"},{"name":"Default light"}],"meshes":[{"primitives":[{"attributes":{"POSITION":1,"NORMAL":2,"TEXCOORD_0":3},"indices":0,"material":0}],"name":"Box04"},{"primitives":[{"attributes":{"POSITION":5,"NORMAL":6,"TEXCOORD_0":7},"indices":4,"material":1}],"name":"_0007_Mist"},{"primitives":[{"attributes":{"POSITION":9,"NORMAL":10,"TEXCOORD_0":11},"indices":8,"material":2}],"name":"_0006_Pink"},{"primitives":[{"attributes":{"POSITION":13,"NORMAL":14,"TEXCOORD_0":15},"indices":12,"material":3}],"name":"0015_Salmo"},{"primitives":[{"attributes":{"POSITION":17,"NORMAL":18,"TEXCOORD_0":19},"indices":16,"material":4}],"name":"0010_Snow"},{"primitives":[{"attributes":{"POSITION":21,"NORMAL":22,"TEXCOORD_0":23},"indices":20,"material":5}],"name":"Object03"},{"primitives":[{"attributes":{"POSITION":25,"NORMAL":26,"TEXCOORD_0":27},"indices":24,"material":0}],"name":"Mesh02"},{"primitives":[{"attributes":{"POSITION":29,"NORMAL":30,"TEXCOORD_0":31},"indices":28,"material":0}],"name":"Mesh05"},{"primitives":[{"attributes":{"POSITION":33,"NORMAL":34,"TEXCOORD_0":35},"indices":32,"material":0}],"name":"Mesh03"},{"primitives":[{"attributes":{"POSITION":37,"NORMAL":38,"TEXCOORD_0":39},"indices":36,"material":6}],"name":"0013_Light"},{"primitives":[{"attributes":{"POSITION":41,"NORMAL":42,"TEXCOORD_0":43},"indices":40,"material":7}],"name":"0012_Bisqu"},{"primitives":[{"attributes":{"POSITION":45,"NORMAL":46,"TEXCOORD_0":47},"indices":44,"material":8}],"name":"0009_Linen"},{"primitives":[{"attributes":{"POSITION":49,"NORMAL":50,"TEXCOORD_0":51},"indices":48,"material":9}],"name":"0008_Laven"},{"primitives":[{"attributes":{"POSITION":53,"NORMAL":54,"TEXCOORD_0":55},"indices":52,"material":10}],"name":"Object04"},{"primitives":[{"attributes":{"POSITION":57,"NORMAL":58,"TEXCOORD_0":59},"indices":56,"material":0}],"name":"Mesh06"},{"primitives":[{"attributes":{"POSITION":61,"NORMAL":62,"TEXCOORD_0":63},"indices":60,"material":11}],"name":"0004_HotPi"},{"primitives":[{"attributes":{"POSITION":65,"NORMAL":66,"TEXCOORD_0":67},"indices":64,"material":12}],"name":"Object02"},{"primitives":[{"attributes":{"POSITION":69,"NORMAL":70,"TEXCOORD_0":71},"indices":68,"material":0}],"name":"Object06"},{"primitives":[{"attributes":{"POSITION":73,"NORMAL":74,"TEXCOORD_0":75},"indices":72,"material":13}],"name":"0005_Light"},{"primitives":[{"attributes":{"POSITION":77,"NORMAL":78,"TEXCOORD_0":79},"indices":76,"material":0}],"name":"Box07"},{"primitives":[{"attributes":{"POSITION":81,"NORMAL":82,"TEXCOORD_0":83},"indices":80,"material":14}],"name":"0002_Mediu"},{"primitives":[{"attributes":{"POSITION":85,"NORMAL":86,"TEXCOORD_0":87},"indices":84,"material":15}],"name":"Object01"},{"primitives":[{"attributes":{"POSITION":89,"NORMAL":90,"TEXCOORD_0":91},"indices":88,"material":0}],"name":"Object05"},{"primitives":[{"attributes":{"POSITION":93,"NORMAL":94,"TEXCOORD_0":95},"indices":92,"material":16}],"name":"0003_DeepP"}],"accessors":[{"bufferView":0,"componentType":5123,"count":180,"type":"SCALAR","name":"accessorIndices"},{"bufferView":1,"componentType":5126,"count":180,"max":[0.465000033,0.2,0.630000055],"min":[-0.465000033,0.0,-0.630000055],"type":"VEC3","name":"accessorPositions"},{"bufferView":1,"byteOffset":2160,"componentType":5126,"count":180,"type":"VEC3","name":"accessorNormals"},{"bufferView":2,"componentType":5126,"count":180,"type":"VEC2","name":"accessorUVs"},{"bufferView":0,"byteOffset":360,"componentType":5123,"count":6,"type":"SCALAR","name":"accessorIndices"},{"bufferView":1,"byteOffset":4320,"componentType":5126,"count":6,"max":[-20.070858,1.04000008,57.968483],"min":[-22.54086,0.2,57.968483],"type":"VEC3","name":"accessorPositions"},{"bufferView":1,"byteOffset":4392,"componentType":5126,"count":6,"type":"VEC3","name":"accessorNormals"},{"bufferView":2,"byteOffset":1440,"componentType":5126,"count":6,"type":"VEC2","name":"accessorUVs"},{"bufferView":0,"byteOffset":372,"componentType":5123,"count":6,"type":"SCALAR","name":"accessorIndices"},{"bufferView":1,"byteOffset":4464,"componentType":5126,"count":6,"max":[-19.905859,1.04000008,57.8084831],"min":[-22.7058582,0.2,57.8084831],"type":"VEC3","name":"accessorPositions"},{"bufferView":1,"byteOffset":4536,"componentType":5126,"count":6,"type":"VEC3","name":"accessorNormals"},{"bufferView":2,"byteOffset":1488,"componentType":5126,"count":6,"type":"VEC2","name":"accessorUVs"},{"bufferView":0,"byteOffset":384,"componentType":5123,"count":6,"type":"SCALAR","name":"accessorIndices"},{"bufferView":1,"byteOffset":4608,"componentType":5126,"count":6,"max":[-19.905859,1.04000008,57.968483],"min":[-19.905859,0.2,57.8084831],"type":"VEC3","name":"accessorPositions"},{"bufferView":1,"byteOffset":4680,"componentType":5126,"count":6,"type":"VEC3","name":"accessorNormals"},{"bufferView":2,"byteOffset":1536,"componentType":5126,"count":6,"type":"VEC2","name":"accessorUVs"},{"bufferView":0,"byteOffset":396,"componentType":5123,"count":6,"type":"SCALAR","name":"accessorIndices"},{"bufferView":1,"byteOffset":4752,"componentType":5126,"count":6,"max":[-22.7058582,1.04000008,57.968483],"min":[-22.7058582,0.2,57.8084831],"type":"VEC3","name":"accessorPositions"},{"bufferView":1,"byteOffset":4824,"componentType":5126,"count":6,"type":"VEC3","name":"accessorNormals"},{"bufferView":2,"byteOffset":1584,"componentType":5126,"count":6,"type":"VEC2","name":"accessorUVs"},{"bufferView":0,"byteOffset":408,"componentType":5123,"count":12,"type":"SCALAR","name":"accessorIndices"},{"bufferView":1,"byteOffset":4896,"componentType":5126,"count":12,"max":[-19.905859,1.04000008,57.968483],"min":[-22.7058582,1.04000008,57.8084831],"type":"VEC3","name":"accessorPositions"},{"bufferView":1,"byteOffset":5040,"componentType":5126,"count":12,"type":"VEC3","name":"accessorNormals"},{"bufferView":2,"byteOffset":1632,"componentType":5126,"count":12,"type":"VEC2","name":"accessorUVs"},{"bufferView":0,"byteOffset":432,"componentType":5123,"count":24,"type":"SCALAR","name":"accessorIndices"},{"bufferView":1,"byteOffset":5184,"componentType":5126,"count":24,"max":[-19.905859,1.04000008,57.968483],"min":[-22.7058582,0.2,57.8084831],"type":"VEC3","name":"accessorPositions"},{"bufferView":1,"byteOffset":5472,"componentType":5126,"count":24,"type":"VEC3","name":"accessorNormals"},{"bufferView":2,"byteOffset":1728,"componentType":5126,"count":24,"type":"VEC2","name":"accessorUVs"},{"bufferView":0,"byteOffset":480,"componentType":5123,"count":6,"type":"SCALAR","name":"accessorIndices"},{"bufferView":1,"byteOffset":5760,"componentType":5126,"count":6,"max":[-19.905859,1.04000008,58.90848],"min":[-20.070858,0.2,58.90848],"type":"VEC3","name":"accessorPositions"},{"bufferView":1,"byteOffset":5832,"componentType":5126,"count":6,"type":"VEC3","name":"accessorNormals"},{"bufferView":2,"byteOffset":1920,"componentType":5126,"count":6,"type":"VEC2","name":"accessorUVs"},{"bufferView":0,"byteOffset":492,"componentType":5123,"count":24,"type":"SCALAR","name":"accessorIndices"},{"bufferView":1,"byteOffset":5904,"componentType":5126,"count":24,"max":[-19.905859,1.04000008,59.06848],"min":[-22.7058582,0.2,58.90848],"type":"VEC3","name":"accessorPositions"},{"bufferView":1,"byteOffset":6192,"componentType":5126,"count":24,"type":"VEC3","name":"accessorNormals"},{"bufferView":2,"byteOffset":1968,"componentType":5126,"count":24,"type":"VEC2","name":"accessorUVs"},{"bufferView":0,"byteOffset":540,"componentType":5123,"count":6,"type":"SCALAR","name":"accessorIndices"},{"bufferView":1,"byteOffset":6480,"componentType":5126,"count":6,"max":[-19.905859,1.04000008,59.06848],"min":[-19.905859,0.2,58.90848],"type":"VEC3","name":"accessorPositions"},{"bufferView":1,"byteOffset":6552,"componentType":5126,"count":6,"type":"VEC3","name":"accessorNormals"},{"bufferView":2,"byteOffset":2160,"componentType":5126,"count":6,"type":"VEC2","name":"accessorUVs"},{"bufferView":0,"byteOffset":552,"componentType":5123,"count":6,"type":"SCALAR","name":"accessorIndices"},{"bufferView":1,"byteOffset":6624,"componentType":5126,"count":6,"max":[-22.7058582,1.04000008,59.06848],"min":[-22.7058582,0.2,58.90848],"type":"VEC3","name":"accessorPositions"},{"bufferView":1,"byteOffset":6696,"componentType":5126,"count":6,"type":"VEC3","name":"accessorNormals"},{"bufferView":2,"byteOffset":2208,"componentType":5126,"count":6,"type":"VEC2","name":"accessorUVs"},{"bufferView":0,"byteOffset":564,"componentType":5123,"count":6,"type":"SCALAR","name":"accessorIndices"},{"bufferView":1,"byteOffset":6768,"componentType":5126,"count":6,"max":[-20.070858,1.04000008,58.90848],"min":[-22.54086,0.2,58.90848],"type":"VEC3","name":"accessorPositions"},{"bufferView":1,"byteOffset":6840,"componentType":5126,"count":6,"type":"VEC3","name":"accessorNormals"},{"bufferView":2,"byteOffset":2256,"componentType":5126,"count":6,"type":"VEC2","name":"accessorUVs"},{"bufferView":0,"byteOffset":576,"componentType":5123,"count":6,"type":"SCALAR","name":"accessorIndices"},{"bufferView":1,"byteOffset":6912,"componentType":5126,"count":6,"max":[-19.905859,1.04000008,59.06848],"min":[-22.7058582,0.2,59.06848],"type":"VEC3","name":"accessorPositions"},{"bufferView":1,"byteOffset":6984,"componentType":5126,"count":6,"type":"VEC3","name":"accessorNormals"},{"bufferView":2,"byteOffset":2304,"componentType":5126,"count":6,"type":"VEC2","name":"accessorUVs"},{"bufferView":0,"byteOffset":588,"componentType":5123,"count":12,"type":"SCALAR","name":"accessorIndices"},{"bufferView":1,"byteOffset":7056,"componentType":5126,"count":12,"max":[-19.905859,1.04000008,59.06848],"min":[-22.7058582,1.04000008,58.90848],"type":"VEC3","name":"accessorPositions"},{"bufferView":1,"byteOffset":7200,"componentType":5126,"count":12,"type":"VEC3","name":"accessorNormals"},{"bufferView":2,"byteOffset":2352,"componentType":5126,"count":12,"type":"VEC2","name":"accessorUVs"},{"bufferView":0,"byteOffset":612,"componentType":5123,"count":6,"type":"SCALAR","name":"accessorIndices"},{"bufferView":1,"byteOffset":7344,"componentType":5126,"count":6,"max":[-22.54086,1.04000008,58.90848],"min":[-22.7058582,0.2,58.90848],"type":"VEC3","name":"accessorPositions"},{"bufferView":1,"byteOffset":7416,"componentType":5126,"count":6,"type":"VEC3","name":"accessorNormals"},{"bufferView":2,"byteOffset":2448,"componentType":5126,"count":6,"type":"VEC2","name":"accessorUVs"},{"bufferView":0,"byteOffset":624,"componentType":5123,"count":6,"type":"SCALAR","name":"accessorIndices"},{"bufferView":1,"byteOffset":7488,"componentType":5126,"count":6,"max":[-19.905859,1.04000008,58.90848],"min":[-19.905859,0.2,57.968483],"type":"VEC3","name":"accessorPositions"},{"bufferView":1,"byteOffset":7560,"componentType":5126,"count":6,"type":"VEC3","name":"accessorNormals"},{"bufferView":2,"byteOffset":2496,"componentType":5126,"count":6,"type":"VEC2","name":"accessorUVs"},{"bufferView":0,"byteOffset":636,"componentType":5123,"count":6,"type":"SCALAR","name":"accessorIndices"},{"bufferView":1,"byteOffset":7632,"componentType":5126,"count":6,"max":[0.0825,0.0,0.470000029],"min":[-0.0825,0.0,-0.470000029],"type":"VEC3","name":"accessorPositions"},{"bufferView":1,"byteOffset":7704,"componentType":5126,"count":6,"type":"VEC3","name":"accessorNormals"},{"bufferView":2,"byteOffset":2544,"componentType":5126,"count":6,"type":"VEC2","name":"accessorUVs"},{"bufferView":0,"byteOffset":648,"componentType":5123,"count":12,"type":"SCALAR","name":"accessorIndices"},{"bufferView":1,"byteOffset":7776,"componentType":5126,"count":12,"max":[-19.905859,1.04000008,58.90848],"min":[-20.070858,0.2,57.968483],"type":"VEC3","name":"accessorPositions"},{"bufferView":1,"byteOffset":7920,"componentType":5126,"count":12,"type":"VEC3","name":"accessorNormals"},{"bufferView":2,"byteOffset":2592,"componentType":5126,"count":12,"type":"VEC2","name":"accessorUVs"},{"bufferView":0,"byteOffset":672,"componentType":5123,"count":6,"type":"SCALAR","name":"accessorIndices"},{"bufferView":1,"byteOffset":8064,"componentType":5126,"count":6,"max":[-20.070858,1.04000008,58.90848],"min":[-20.070858,0.2,57.968483],"type":"VEC3","name":"accessorPositions"},{"bufferView":1,"byteOffset":8136,"componentType":5126,"count":6,"type":"VEC3","name":"accessorNormals"},{"bufferView":2,"byteOffset":2688,"componentType":5126,"count":6,"type":"VEC2","name":"accessorUVs"},{"bufferView":0,"byteOffset":684,"componentType":5123,"count":132,"type":"SCALAR","name":"accessorIndices"},{"bufferView":1,"byteOffset":8208,"componentType":5126,"count":132,"max":[0.34800002,0.18,0.630000055],"min":[-0.350000024,0.0,-0.630000055],"type":"VEC3","name":"accessorPositions"},{"bufferView":1,"byteOffset":9792,"componentType":5126,"count":132,"type":"VEC3","name":"accessorNormals"},{"bufferView":2,"byteOffset":2736,"componentType":5126,"count":132,"type":"VEC2","name":"accessorUVs"},{"bufferView":0,"byteOffset":948,"componentType":5123,"count":6,"type":"SCALAR","name":"accessorIndices"},{"bufferView":1,"byteOffset":11376,"componentType":5126,"count":6,"max":[-22.7058582,1.04000008,58.90848],"min":[-22.7058582,0.2,57.968483],"type":"VEC3","name":"accessorPositions"},{"bufferView":1,"byteOffset":11448,"componentType":5126,"count":6,"type":"VEC3","name":"accessorNormals"},{"bufferView":2,"byteOffset":3792,"componentType":5126,"count":6,"type":"VEC2","name":"accessorUVs"},{"bufferView":0,"byteOffset":960,"componentType":5123,"count":6,"type":"SCALAR","name":"accessorIndices"},{"bufferView":1,"byteOffset":11520,"componentType":5126,"count":6,"max":[0.0825,0.0,0.470000029],"min":[-0.0825,0.0,-0.470000029],"type":"VEC3","name":"accessorPositions"},{"bufferView":1,"byteOffset":11592,"componentType":5126,"count":6,"type":"VEC3","name":"accessorNormals"},{"bufferView":2,"byteOffset":3840,"componentType":5126,"count":6,"type":"VEC2","name":"accessorUVs"},{"bufferView":0,"byteOffset":972,"componentType":5123,"count":12,"type":"SCALAR","name":"accessorIndices"},{"bufferView":1,"byteOffset":11664,"componentType":5126,"count":12,"max":[-22.54086,1.04000008,58.90848],"min":[-22.7058582,0.2,57.968483],"type":"VEC3","name":"accessorPositions"},{"bufferView":1,"byteOffset":11808,"componentType":5126,"count":12,"type":"VEC3","name":"accessorNormals"},{"bufferView":2,"byteOffset":3888,"componentType":5126,"count":12,"type":"VEC2","name":"accessorUVs"},{"bufferView":0,"byteOffset":996,"componentType":5123,"count":6,"type":"SCALAR","name":"accessorIndices"},{"bufferView":1,"byteOffset":11952,"componentType":5126,"count":6,"max":[-22.54086,1.04000008,58.90848],"min":[-22.54086,0.2,57.968483],"type":"VEC3","name":"accessorPositions"},{"bufferView":1,"byteOffset":12024,"componentType":5126,"count":6,"type":"VEC3","name":"accessorNormals"},{"bufferView":2,"byteOffset":3984,"componentType":5126,"count":6,"type":"VEC2","name":"accessorUVs"}],"bufferViews":[{"buffer":0,"byteLength":1008,"name":"bufferViewScalar"},{"buffer":0,"byteOffset":1008,"byteLength":12096,"byteStride":12,"name":"bufferViewFloatVec3"},{"buffer":0,"byteOffset":13104,"byteLength":4032,"byteStride":8,"name":"bufferViewFloatVec2"}],"buffers":[{"uri":"shiguo.bin","byteLength":17136}],"materials":[{"pbrMetallicRoughness":{"baseColorTexture":{"index":0},"metallicFactor":0.0,"roughnessFactor":0.9},"normalTexture":{"index":0},"name":"jc"},{"pbrMetallicRoughness":{"baseColorTexture":{"index":1},"metallicFactor":0.0,"roughnessFactor":0.9},"normalTexture":{"index":1},"name":"lii"},{"pbrMetallicRoughness":{"baseColorTexture":{"index":2},"metallicFactor":0.0,"roughnessFactor":0.9},"normalTexture":{"index":2},"name":"lo"},{"pbrMetallicRoughness":{"baseColorTexture":{"index":3},"metallicFactor":0.0,"roughnessFactor":0.9},"normalTexture":{"index":3},"name":"lb"},{"pbrMetallicRoughness":{"baseColorTexture":{"index":4},"metallicFactor":0.0,"roughnessFactor":0.9},"normalTexture":{"index":4},"name":"lf"},{"pbrMetallicRoughness":{"baseColorTexture":{"index":5},"metallicFactor":0.0,"roughnessFactor":0.9},"normalTexture":{"index":5},"name":"lh"},{"pbrMetallicRoughness":{"baseColorTexture":{"index":6},"metallicFactor":0.0,"roughnessFactor":0.9},"normalTexture":{"index":6},"name":"rb"},{"pbrMetallicRoughness":{"baseColorTexture":{"index":7},"metallicFactor":0.0,"roughnessFactor":0.9},"normalTexture":{"index":7},"name":"rf"},{"pbrMetallicRoughness":{"baseColorTexture":{"index":8},"metallicFactor":0.0,"roughnessFactor":0.9},"normalTexture":{"index":8},"name":"rii"},{"pbrMetallicRoughness":{"baseColorTexture":{"index":9},"metallicFactor":0.0,"roughnessFactor":0.9},"name":"ro"},{"pbrMetallicRoughness":{"baseColorTexture":{"index":10},"metallicFactor":0.0,"roughnessFactor":0.9},"normalTexture":{"index":10},"name":"rh"},{"pbrMetallicRoughness":{"baseColorTexture":{"index":11},"metallicFactor":0.0,"roughnessFactor":0.9},"normalTexture":{"index":11},"name":"bo"},{"pbrMetallicRoughness":{"baseColorTexture":{"index":12},"metallicFactor":0.0,"roughnessFactor":0.9},"normalTexture":{"index":12},"name":"bh"},{"pbrMetallicRoughness":{"baseColorTexture":{"index":13},"metallicFactor":0.0,"roughnessFactor":0.9},"normalTexture":{"index":13},"name":"bi"},{"pbrMetallicRoughness":{"baseColorTexture":{"index":14},"metallicFactor":0.0,"roughnessFactor":0.9},"normalTexture":{"index":14},"name":"fo"},{"pbrMetallicRoughness":{"baseColorTexture":{"index":15},"metallicFactor":0.0,"roughnessFactor":0.9},"normalTexture":{"index":15},"name":"fh"},{"pbrMetallicRoughness":{"baseColorTexture":{"index":16},"metallicFactor":0.0,"roughnessFactor":0.9},"normalTexture":{"index":16},"name":"fi"}],"textures":[{"sampler":0,"source":0,"name":"SABBIA_NB.jpg"},{"sampler":0,"source":1,"name":"left-in03.jpg"},{"sampler":0,"source":2,"name":"left-out01.jpg"},{"sampler":0,"source":3,"name":"left-behind04.jpg"},{"sampler":0,"source":4,"name":"left-front05.jpg"},{"sampler":1,"source":5,"name":"left-up10.jpg"},{"sampler":0,"source":6,"name":"right-behind.jpg"},{"sampler":0,"source":7,"name":"right-frong.jpg"},{"sampler":0,"source":8,"name":"right-in.jpg"},{"sampler":0,"source":9,"name":"right-out.jpg"},{"sampler":1,"source":10,"name":"right-up.jpg"},{"sampler":0,"source":11,"name":"behind-out.jpg"},{"sampler":1,"source":12,"name":"behind-up.jpg"},{"sampler":0,"source":13,"name":"behind-in.jpg"},{"sampler":0,"source":14,"name":"front-out.jpg"},{"sampler":1,"source":15,"name":"front-up.jpg"},{"sampler":0,"source":16,"name":"front-in.jpg"}],"images":[{"uri":"./SABBIA_NB.jpg"},{"uri":"./left-in03.jpg"},{"uri":"./left-out01.jpg"},{"uri":"./left-behind04.jpg"},{"uri":"./left-front05.jpg"},{"uri":"./left-up10.jpg"},{"uri":"./right-behind.jpg"},{"uri":"./right-frong.jpg"},{"uri":"./right-in.jpg"},{"uri":"./right-out.jpg"},{"uri":"./right-up.jpg"},{"uri":"./behind-out.jpg"},{"uri":"./behind-up.jpg"},{"uri":"./behind-in.jpg"},{"uri":"./front-out.jpg"},{"uri":"./front-up.jpg"},{"uri":"./front-in.jpg"}],"samplers":[{"magFilter":9729,"minFilter":9987},{"magFilter":9729,"minFilter":9987,"wrapS":33071}]}